# xmcd
#
# Track frame offsets:
#	150
#	12712
#	24720
#	37580
#	47227
#	57289
#	67807
#	77315
#	90667
#	103565
#	114177
#	127875
#	139377
#	151372
#	162187
#	174075
#	186492
#	198162
#	210192
#	221262
#	231667
#	242217
#	254157
#
# Disc length: 3549 seconds
# Revision: 0
# Processed by: cddbd v1.5.2PL0 Copyright (c) Steve Scherf et al.
# Submitted via: dBpowerAMP V12.0
#
DISCID=320ddb17
DTITLE=Loretta Lynn - Honky Tonk Girl [The Loretta Collection]
DYEAR=1994
DGENRE=Country
TTITLE0=There Goes My Everything
TTITLE1=If You're Not Gone Too Long
TTITLE2=What Kind Of Girl (Do You Think I Am?)
TTITLE3=Who Says God Is Dead!
TTITLE4=Fist City
TTITLE5=You've Just Stepped In (From Stepping Out On Me)
TTITLE6=Your Squaw Is On The Warpath
TTITLE7=Woman Of The World (Leave My World Alone)
TTITLE8=LOVE L-O-V-E
TTITLE9=Who's Gonna Take The Garbage Out (With Ernest Tubb)
TTITLE10=Coal Miner's Daughter
TTITLE11=You Wanna Give Me A Lift
TTITLE12=Wings Upon Your Horns
TTITLE13=The One You Need
TTITLE14=Deep As Your Pocket
TTITLE15=Crazy Out Of My Mind
TTITLE16=I Know How
TTITLE17=After The Fire Is Gone (With Conway Twitty)
TTITLE18=Lead Me On (With Conway Twitty)
TTITLE19=I Wanna Be Free
TTITLE20=You're Lookin' At Country
TTITLE21=One's On The Way
TTITLE22=Rated X
EXTD=
EXTT0=
EXTT1=
EXTT2=
EXTT3=
EXTT4=
EXTT5=
EXTT6=
EXTT7=
EXTT8=
EXTT9=
EXTT10=
EXTT11=
EXTT12=
EXTT13=
EXTT14=
EXTT15=
EXTT16=
EXTT17=
EXTT18=
EXTT19=
EXTT20=
EXTT21=
EXTT22=
PLAYORDER=
